HIERARCHY
ROOT Hips
{
	OFFSET 0.000000 0.000000 0.000000
	CHANNELS 6 Xposition Yposition Zposition Zrotation Yrotation Xrotation
	JOINT LHipJoint
	{
		OFFSET 0.000000 0.000000 0.000000
		CHANNELS 3 Zrotation Yrotation Xrotation
		JOINT LeftUpLeg
		{
			OFFSET 1.363060 -1.794630 0.839290
			CHANNELS 3 Zrotation Yrotation Xrotation
			JOINT LeftLeg
			{
				OFFSET 2.448110 -6.726130 0.000000
				CHANNELS 3 Zrotation Yrotation Xrotation
				JOINT LeftFoot
				{
					OFFSET 2.562200 -7.039590 0.000000
					CHANNELS 3 Zrotation Yrotation Xrotation
					JOINT LeftToeBase
					{
						OFFSET 0.157640 -0.433110 2.322550
						CHANNELS 3 Zrotation Yrotation Xrotation
						End Site
						{
							OFFSET 0.000000 0.000000 0.000000
						}
					}
				}
			}
		}
	}
	JOINT RHipJoint
	{
		OFFSET 0.000000 0.000000 0.000000
		CHANNELS 3 Zrotation Yrotation Xrotation
		JOINT RightUpLeg
		{
			OFFSET -1.305520 -1.794630 0.839290
			CHANNELS 3 Zrotation Yrotation Xrotation
			JOINT RightLeg
			{
				OFFSET -2.542530 -6.985550 0.000000
				CHANNELS 3 Zrotation Yrotation Xrotation
				JOINT RightFoot
				{
					OFFSET -2.568260 -7.056230 0.000000
					CHANNELS 3 Zrotation Yrotation Xrotation
					JOINT RightToeBase
					{
						OFFSET -0.164730 -0.452590 2.363150
						CHANNELS 3 Zrotation Yrotation Xrotation
						End Site
						{
							OFFSET 0.000000 0.000000 0.000000
						}
					}
				}
			}
		}
	}
	JOINT LowerBack
	{
		OFFSET 0.000000 0.000000 0.000000
		CHANNELS 3 Zrotation Yrotation Xrotation
		JOINT Spine
		{
			OFFSET 0.028270 2.035590 -0.193380
			CHANNELS 3 Zrotation Yrotation Xrotation
			JOINT Spine1
			{
				OFFSET 0.056720 2.048850 -0.042750
				CHANNELS 3 Zrotation Yrotation Xrotation
				JOINT Neck
				{
					OFFSET 0.000000 0.000000 0.000000
					CHANNELS 3 Zrotation Yrotation Xrotation
					JOINT Neck1
					{
						OFFSET -0.054170 1.746240 0.172020
						CHANNELS 3 Zrotation Yrotation Xrotation
						JOINT Head
						{
							OFFSET 0.104070 1.761360 -0.123970
							CHANNELS 3 Zrotation Yrotation Xrotation
							End Site
							{
								OFFSET 0.000000 0.000000 0.000000
							}
						}
					}
				}
				JOINT LeftShoulder
				{
					OFFSET 0.000000 0.000000 0.000000
					CHANNELS 3 Zrotation Yrotation Xrotation
					JOINT LeftArm
					{
						OFFSET 3.362410 1.200890 -0.311210
						CHANNELS 3 Zrotation Yrotation Xrotation
						JOINT LeftForeArm
						{
							OFFSET 4.983000 -0.000000 -0.000000
							CHANNELS 3 Zrotation Yrotation Xrotation
							JOINT LeftHand
							{
								OFFSET 3.483560 -0.000000 -0.000000
								CHANNELS 3 Zrotation Yrotation Xrotation
								JOINT LeftFingerBase
								{
									OFFSET 0.000000 0.000000 0.000000
									CHANNELS 3 Zrotation Yrotation Xrotation
									JOINT LeftHandIndex1
									{
										OFFSET 0.715260 -0.000000 -0.000000
										CHANNELS 3 Zrotation Yrotation Xrotation
										End Site
										{
											OFFSET 0.000000 0.000000 0.000000
										}
									}
								}
								JOINT LThumb
								{
									OFFSET 0.000000 0.000000 0.000000
									CHANNELS 3 Zrotation Yrotation Xrotation
									End Site
									{
										OFFSET 0.000000 0.000000 0.000000
									}
								}
							}
						}
					}
				}
				JOINT RightShoulder
				{
					OFFSET 0.000000 0.000000 0.000000
					CHANNELS 3 Zrotation Yrotation Xrotation
					JOINT RightArm
					{
						OFFSET -3.136600 1.374050 -0.404650
						CHANNELS 3 Zrotation Yrotation Xrotation
						JOINT RightForeArm
						{
							OFFSET -5.241900 -0.000000 -0.000000
							CHANNELS 3 Zrotation Yrotation Xrotation
							JOINT RightHand
							{
								OFFSET -3.444170 -0.000000 -0.000000
								CHANNELS 3 Zrotation Yrotation Xrotation
								JOINT RightFingerBase
								{
									OFFSET 0.000000 0.000000 0.000000
									CHANNELS 3 Zrotation Yrotation Xrotation
									JOINT RightHandIndex1
									{
										OFFSET -0.622530 -0.000000 -0.000000
										CHANNELS 3 Zrotation Yrotation Xrotation
										End Site
										{
											OFFSET 0.000000 0.000000 0.000000
										}
									}
								}
								JOINT RThumb
								{
									OFFSET 0.000000 0.000000 0.000000
									CHANNELS 3 Zrotation Yrotation Xrotation
									End Site
									{
										OFFSET 0.000000 0.000000 0.000000
									}
								}
							}
						}
					}
				}
			}
		}
	}
}
MOTION
Frames: 5
Frame Time: 0.008333
0.015538 0.005293 0.137277 0.339863 0.210856 -0.184539 -0.016480 0.017984 0.097074 -0.560921 -0.059320 0.068861 0.060093 0.176743 0.619745 0.141746 -0.575015 -0.160198 0.098876 -0.496454 -1.397828 -0.066864 0.050482 -0.134021 -0.166850 -0.078646 -0.354302 -0.466545 -0.466197 1.387489 -0.008960 -0.435894 0.536397 0.004607 0.030883 -0.086067 -0.354266 -0.145626 0.137026 -0.025014 -0.182999 0.007064 -0.018290 -0.101511 -0.064381 0.092661 0.076218 0.168340 0.045061 0.070079 -0.196463 0.006379 0.037768 -0.155781 -0.025211 -0.032545 0.017212 0.175647 -0.311808 -0.011388 -0.005793 0.021970 -0.002353 0.000691 0.009594 0.003561 0.052263 -0.012273 -0.013619 0.000000 0.000000 0.000000 0.041211 -0.024808 -0.018175 -0.029127 -0.000127 0.004120 0.450546 -0.563318 0.038531 -0.024259 0.101706 -0.034236 0.018817 -0.035727 0.094119 -0.893517 -0.058052 0.554727 -0.000000 0.000000 0.000000 -1.119073 -0.247974 0.500049
-0.182287 0.474344 1.335457 0.817780 -0.001632 -0.613790 -0.185455 -0.008806 0.103928 -0.549467 -0.094291 0.137313 0.071969 0.054949 -0.425538 0.265688 -0.671428 0.284810 0.214131 -0.611846 -0.086017 0.122516 0.123064 -0.103404 0.187721 0.125824 -0.178592 -0.362237 -0.353084 1.423422 -0.016827 -0.783580 0.439369 0.039346 0.167493 -0.305757 -0.399730 -0.081548 0.322907 -0.036732 -0.076984 -0.022383 -0.035948 -0.154690 -0.414019 -0.001455 0.012980 0.027429 0.101672 0.022122 -0.278601 0.166961 0.009860 -0.191692 -0.105025 -0.022367 -0.040334 0.295165 -0.093241 0.543944 0.122188 0.550211 0.092214 0.082346 0.058592 1.438852 1.132922 1.503775 1.437029 0.068259 0.000000 0.000000 1.460411 -0.063563 0.460644 -0.088266 -0.010768 -0.134521 0.066251 -1.718376 -0.996649 1.775954 0.198984 0.058827 0.034057 -0.172140 -0.363913 -5.644804 -0.857159 -1.020406 -0.025700 0.000000 0.000000 -3.045428 -1.286313 0.171231
-0.231812 0.576081 1.131913 0.853866 -0.725643 -1.237682 -0.424595 -0.007665 0.094038 -0.706300 -0.285593 0.251108 0.029823 -0.100505 -1.884366 0.333252 -0.736596 0.345198 0.295489 -0.541536 0.911173 0.064392 0.090718 -0.309768 -0.074648 0.059233 -0.377665 -0.422590 -0.302419 1.348447 -0.004775 -1.209469 0.589995 0.054619 0.282172 -0.338525 -0.506522 -0.057967 0.358835 -0.095868 -0.021861 -0.079467 -0.067208 -0.208675 -0.481355 -0.028882 0.071814 -0.105250 0.175813 -0.045139 -0.366741 0.222747 -0.028773 -0.260460 -0.203408 -0.003515 -0.089386 0.119074 0.052834 1.402696 0.191570 0.800365 0.066213 0.147963 0.002039 1.730926 1.456019 2.304403 1.913207 0.040302 0.000000 0.000000 0.654144 -1.479814 -0.505077 -0.405465 -0.141627 -0.221355 -1.111549 -2.922454 -2.025032 2.925404 0.056400 -0.548198 0.029516 -0.274848 -0.553263 -8.121008 -2.279025 -3.149774 -0.067322 0.000000 0.000000 -5.283927 -1.974009 -1.797280
-0.104579 0.484185 0.762270 1.154556 -1.180358 -1.285184 -0.278507 0.036436 0.216480 -0.522225 -0.249383 0.928829 0.090978 -0.081782 -3.146379 0.382051 -0.768834 0.295911 0.378738 -0.413191 1.942663 0.041357 0.064018 -0.491453 -0.353947 -0.014176 -0.503571 -0.478121 -0.238219 1.383431 0.075896 -1.548743 1.053172 0.090989 0.480225 -0.258302 -0.560015 -0.011237 0.483303 -0.117108 0.069464 -0.047827 -0.038638 -0.250254 -0.444000 0.001934 0.240686 -0.114394 0.323923 0.012358 -0.209330 0.418255 0.032296 -0.129434 -0.045011 0.162613 -0.088020 0.965568 0.500717 2.700690 0.353876 1.199144 0.024279 0.222786 -0.036858 2.394494 1.809407 3.916826 2.545474 0.063734 0.000000 0.000000 0.517373 -1.262615 -0.149931 -0.504025 -0.116382 -0.210925 -2.024396 -3.889431 -2.541659 2.965502 -0.510754 -1.134280 0.039554 -0.319707 -0.218944 -6.682411 -2.530184 -3.142457 -0.052023 0.000000 0.000000 -5.150486 -0.849378 -1.585539
0.077941 -0.070536 -1.352870 0.963635 -2.316928 -1.416694 -0.363504 0.083944 0.318756 -0.567993 -0.386964 1.497646 0.129889 0.098545 -3.890349 0.385590 -0.714947 0.001068 0.417687 0.055849 3.290880 0.201734 0.106311 -0.473038 -0.190020 0.069857 -0.250964 -0.469930 -0.006353 1.259894 0.166409 -1.807572 1.387783 0.030708 0.419308 -0.531702 -0.652425 -0.000330 0.536547 -0.103548 0.154741 0.027748 0.051813 -0.300154 -0.315737 -0.067575 0.337223 -0.053712 0.476822 -0.044337 -0.179638 0.507723 0.135975 -0.030048 0.074341 0.189247 -0.075539 1.445523 0.693391 2.293115 0.350528 1.841297 0.006167 0.258506 -0.101793 3.603341 2.224647 6.006404 2.876682 0.233736 0.000000 0.000000 0.787719 0.029959 1.310705 -0.416483 -0.001349 -0.222192 -2.995788 -3.976040 -1.790759 2.550698 -0.911732 -2.232875 -0.115651 -0.377546 -0.323049 -5.237256 -3.291991 -3.833116 -0.056320 0.000000 0.000000 -6.093904 -0.065383 -1.776223
